<mxfile host="app.diagrams.net" modified="2023-07-14T06:17:12.793Z" agent="Mozilla/5.0 (Macintosh; Intel Mac OS X 10.15; rv:102.0) Gecko/20100101 Firefox/102.0" etag="M1GbDmEwyYOqKh8EbZJA" version="21.6.2" type="github">
  <diagram id="C5RBs43oDa-KdzZeNtuy" name="Page-1">
    <mxGraphModel dx="1575" dy="545" grid="1" gridSize="10" guides="1" tooltips="1" connect="1" arrows="1" fold="1" page="1" pageScale="1" pageWidth="827" pageHeight="1169" math="0" shadow="0">
      <root>
        <mxCell id="WIyWlLk6GJQsqaUBKTNV-0" />
        <mxCell id="WIyWlLk6GJQsqaUBKTNV-1" parent="WIyWlLk6GJQsqaUBKTNV-0" />
        <mxCell id="mRoG3vJh9QnEbDzoWX3e-5" value="No" style="edgeStyle=orthogonalEdgeStyle;rounded=0;orthogonalLoop=1;jettySize=auto;html=1;entryX=0;entryY=0.5;entryDx=0;entryDy=0;" edge="1" parent="WIyWlLk6GJQsqaUBKTNV-1" source="WIyWlLk6GJQsqaUBKTNV-6" target="mRoG3vJh9QnEbDzoWX3e-4">
          <mxGeometry relative="1" as="geometry" />
        </mxCell>
        <mxCell id="mRoG3vJh9QnEbDzoWX3e-16" style="edgeStyle=orthogonalEdgeStyle;rounded=0;orthogonalLoop=1;jettySize=auto;html=1;entryX=0.5;entryY=0;entryDx=0;entryDy=0;" edge="1" parent="WIyWlLk6GJQsqaUBKTNV-1" source="WIyWlLk6GJQsqaUBKTNV-6" target="mRoG3vJh9QnEbDzoWX3e-15">
          <mxGeometry relative="1" as="geometry" />
        </mxCell>
        <mxCell id="WIyWlLk6GJQsqaUBKTNV-6" value="Is there data today?" style="rhombus;whiteSpace=wrap;html=1;shadow=0;fontFamily=Helvetica;fontSize=12;align=center;strokeWidth=1;spacing=6;spacingTop=-4;" parent="WIyWlLk6GJQsqaUBKTNV-1" vertex="1">
          <mxGeometry x="170" y="120" width="100" height="80" as="geometry" />
        </mxCell>
        <mxCell id="mRoG3vJh9QnEbDzoWX3e-2" style="edgeStyle=orthogonalEdgeStyle;rounded=0;orthogonalLoop=1;jettySize=auto;html=1;entryX=0.5;entryY=0;entryDx=0;entryDy=0;" edge="1" parent="WIyWlLk6GJQsqaUBKTNV-1" source="mRoG3vJh9QnEbDzoWX3e-0" target="WIyWlLk6GJQsqaUBKTNV-6">
          <mxGeometry relative="1" as="geometry">
            <mxPoint x="220" y="100" as="targetPoint" />
          </mxGeometry>
        </mxCell>
        <mxCell id="mRoG3vJh9QnEbDzoWX3e-0" value="Start" style="ellipse;whiteSpace=wrap;html=1;" vertex="1" parent="WIyWlLk6GJQsqaUBKTNV-1">
          <mxGeometry x="175" y="10" width="90" height="50" as="geometry" />
        </mxCell>
        <mxCell id="mRoG3vJh9QnEbDzoWX3e-1" value="End" style="ellipse;whiteSpace=wrap;html=1;" vertex="1" parent="WIyWlLk6GJQsqaUBKTNV-1">
          <mxGeometry x="175" y="440" width="90" height="50" as="geometry" />
        </mxCell>
        <mxCell id="mRoG3vJh9QnEbDzoWX3e-7" value="Yes" style="edgeStyle=orthogonalEdgeStyle;rounded=0;orthogonalLoop=1;jettySize=auto;html=1;entryX=0.5;entryY=0;entryDx=0;entryDy=0;" edge="1" parent="WIyWlLk6GJQsqaUBKTNV-1" source="mRoG3vJh9QnEbDzoWX3e-4" target="mRoG3vJh9QnEbDzoWX3e-10">
          <mxGeometry relative="1" as="geometry">
            <mxPoint x="380" y="230" as="targetPoint" />
          </mxGeometry>
        </mxCell>
        <mxCell id="mRoG3vJh9QnEbDzoWX3e-8" value="No" style="edgeStyle=orthogonalEdgeStyle;rounded=0;orthogonalLoop=1;jettySize=auto;html=1;entryX=0.5;entryY=0;entryDx=0;entryDy=0;" edge="1" parent="WIyWlLk6GJQsqaUBKTNV-1" source="mRoG3vJh9QnEbDzoWX3e-4" target="mRoG3vJh9QnEbDzoWX3e-12">
          <mxGeometry relative="1" as="geometry">
            <mxPoint x="510" y="230" as="targetPoint" />
          </mxGeometry>
        </mxCell>
        <mxCell id="mRoG3vJh9QnEbDzoWX3e-4" value="If checkpoint is&lt;br&gt;T-1" style="rhombus;whiteSpace=wrap;html=1;shadow=0;fontFamily=Helvetica;fontSize=12;align=center;strokeWidth=1;spacing=6;spacingTop=-4;" vertex="1" parent="WIyWlLk6GJQsqaUBKTNV-1">
          <mxGeometry x="330" y="120" width="100" height="80" as="geometry" />
        </mxCell>
        <mxCell id="mRoG3vJh9QnEbDzoWX3e-20" style="edgeStyle=orthogonalEdgeStyle;rounded=0;orthogonalLoop=1;jettySize=auto;html=1;entryX=1;entryY=0.5;entryDx=0;entryDy=0;" edge="1" parent="WIyWlLk6GJQsqaUBKTNV-1" source="mRoG3vJh9QnEbDzoWX3e-10" target="mRoG3vJh9QnEbDzoWX3e-1">
          <mxGeometry relative="1" as="geometry" />
        </mxCell>
        <mxCell id="mRoG3vJh9QnEbDzoWX3e-10" value="Update checkpoint as&amp;nbsp; today" style="rounded=1;whiteSpace=wrap;html=1;" vertex="1" parent="WIyWlLk6GJQsqaUBKTNV-1">
          <mxGeometry x="440" y="445" width="120" height="40" as="geometry" />
        </mxCell>
        <mxCell id="mRoG3vJh9QnEbDzoWX3e-23" style="edgeStyle=orthogonalEdgeStyle;rounded=0;orthogonalLoop=1;jettySize=auto;html=1;entryX=0.5;entryY=0;entryDx=0;entryDy=0;" edge="1" parent="WIyWlLk6GJQsqaUBKTNV-1" source="mRoG3vJh9QnEbDzoWX3e-12" target="mRoG3vJh9QnEbDzoWX3e-10">
          <mxGeometry relative="1" as="geometry" />
        </mxCell>
        <mxCell id="mRoG3vJh9QnEbDzoWX3e-12" value="Execute comparison&lt;br&gt;from checkpoint to today" style="rounded=1;whiteSpace=wrap;html=1;" vertex="1" parent="WIyWlLk6GJQsqaUBKTNV-1">
          <mxGeometry x="320" y="260" width="120" height="40" as="geometry" />
        </mxCell>
        <mxCell id="mRoG3vJh9QnEbDzoWX3e-18" style="edgeStyle=orthogonalEdgeStyle;rounded=0;orthogonalLoop=1;jettySize=auto;html=1;entryX=0.5;entryY=0;entryDx=0;entryDy=0;" edge="1" parent="WIyWlLk6GJQsqaUBKTNV-1" source="mRoG3vJh9QnEbDzoWX3e-15" target="mRoG3vJh9QnEbDzoWX3e-1">
          <mxGeometry relative="1" as="geometry" />
        </mxCell>
        <mxCell id="mRoG3vJh9QnEbDzoWX3e-19" value="No" style="edgeLabel;html=1;align=center;verticalAlign=middle;resizable=0;points=[];" vertex="1" connectable="0" parent="mRoG3vJh9QnEbDzoWX3e-18">
          <mxGeometry x="0.035" y="-3" relative="1" as="geometry">
            <mxPoint as="offset" />
          </mxGeometry>
        </mxCell>
        <mxCell id="mRoG3vJh9QnEbDzoWX3e-21" style="edgeStyle=orthogonalEdgeStyle;rounded=0;orthogonalLoop=1;jettySize=auto;html=1;entryX=0;entryY=0.5;entryDx=0;entryDy=0;" edge="1" parent="WIyWlLk6GJQsqaUBKTNV-1" source="mRoG3vJh9QnEbDzoWX3e-15" target="mRoG3vJh9QnEbDzoWX3e-12">
          <mxGeometry relative="1" as="geometry" />
        </mxCell>
        <mxCell id="mRoG3vJh9QnEbDzoWX3e-22" value="Yes" style="edgeLabel;html=1;align=center;verticalAlign=middle;resizable=0;points=[];" vertex="1" connectable="0" parent="mRoG3vJh9QnEbDzoWX3e-21">
          <mxGeometry x="-0.4211" y="2" relative="1" as="geometry">
            <mxPoint as="offset" />
          </mxGeometry>
        </mxCell>
        <mxCell id="mRoG3vJh9QnEbDzoWX3e-15" value="If checkpoint &amp;lt; T-10" style="rhombus;whiteSpace=wrap;html=1;shadow=0;fontFamily=Helvetica;fontSize=12;align=center;strokeWidth=1;spacing=6;spacingTop=-4;" vertex="1" parent="WIyWlLk6GJQsqaUBKTNV-1">
          <mxGeometry x="170" y="240" width="100" height="80" as="geometry" />
        </mxCell>
      </root>
    </mxGraphModel>
  </diagram>
</mxfile>
